<svg version="1" xmlns="http://www.w3.org/2000/svg" width="160" height="160" viewBox="0 0 120.000000 120.000000"><path d="M46.1 4.1C27.7 8.8 12.3 22.9 5.9 41 4 46.2 3.6 49.7 3.5 58.5c0 13.4.5 15.7 5.5 26.4 6.6 13.8 19.9 25.1 34.7 29.6 2.6.8 6 1.5 7.4 1.5 2.2 0 2.6-.4 2.4-2.7-.1-2.3-.8-2.8-6-4.3-23.3-6.4-38.9-26.8-38.4-50.5.7-37.9 40.7-61.3 74.9-44 6.9 3.5 17.9 14.4 21.3 21 15.4 30.6-1 66.2-34.2 73.9-5.6 1.3-6.2 1.3-6.9-.2-.9-1.9-.8-65.9.1-66.8.3-.3 7.1-.5 15.1-.5H94V35H26.2l-.4 3c-.3 1.7-.2 3.3.1 3.5.4.2 5.3.3 11.1.4h14.8l4.2.1V117.3l8-.6c23-1.7 42.7-16.8 50.5-38.7 2.2-6.2 2.9-11.3 2.8-20.1-.5-36-35.9-62.7-71.2-53.8z"/><path d="M25.7 45.5c-.2.5-.3 9.3-.3 19.5l.1 18.5 3.8.3 3.7.3v-6.9c0-4.7.4-7.1 1.3-7.4.6-.3 5.1-.4 10-.3 4.8.1 8.8-.2 8.8-.7.1-.4.2-1.5.2-2.3 0-4.1-.1-4.1-9-4-4.9.1-9.4 0-10.1-.3-.8-.3-1.2-2.1-1.1-5.3l.2-4.8 10.1-.3 10-.3.1-2.7c.1-1.5-.1-3.1-.4-3.5-.9-1.2-27-1-27.4.2zM66.5 44.9c-.3.2-.5 1.8-.5 3.5v3.1h6.8c8.8-.1 11.8.9 13.1 4.5.8 2.4.6 3.4-1 5.5-1.8 2.2-2.8 2.5-8.5 2.5-7.6 0-7.7-.3 1.5 9.9 3.5 4 6.9 7.9 7.6 8.7.7 1.1 2.4 1.4 5.7 1.2l4.7-.3L90 77l-5.8-6.6 2.9-1.3c4.1-1.8 6.3-5.5 6.5-11.3.2-4.4-.1-5.2-3.5-8.8-2.1-2.2-4.6-4-5.7-4.1-6.9-.4-17.5-.4-17.9 0z"/></svg>