<?xml version="1.0" encoding="UTF-8" standalone="no"?>
<svg
        xmlns:dc="http://purl.org/dc/elements/1.1/"
        xmlns:cc="http://creativecommons.org/ns#"
        xmlns:rdf="http://www.w3.org/1999/02/22-rdf-syntax-ns#"
        xmlns="http://www.w3.org/2000/svg"
        viewBox="50 130 300 150"
        height="250"
        width="400"
        xml:space="preserve"
        id="svg2"
        version="1.1"><metadata
     id="metadata8"><rdf:RDF><cc:Work
         rdf:about=""><dc:format>image/svg+xml</dc:format><dc:type
        rdf:resource="http://purl.org/dc/dcmitype/StillImage"/></cc:Work></rdf:RDF></metadata>
    <defs
            id="defs6"><clipPath
       id="clipPath18"
       clipPathUnits="userSpaceOnUse"><path
         id="path16"
         d="m 247.334,212.311 c -0.667,-0.051 -2.103,-0.611 -2.481,-2.58 v 0 c -0.233,-1.173 0.054,-3.252 -0.099,-5.526 v 0 c -0.033,-0.531 -0.482,-1.306 -0.774,-2.722 v 0 c -0.328,-1.625 -0.731,-3.857 -1.345,-5.728 v 0 c 0.082,0.63 0.68,4.333 0.776,5.872 v 0 c 0.097,1.532 -1.251,6.363 -1.347,7.133 v 0 c -0.075,0.62 -0.314,0.797 -0.635,0.827 v 0 c -1.153,0.103 -2.303,-1.631 -1.933,-3.975 v 0 c 0.12,-0.704 1,-2.737 0.919,-3.895 v 0 c -0.079,-1.158 -0.642,-2.342 -0.696,-3 v 0 c -0.13,-1.627 -0.206,-3.831 -0.411,-4.855 v 0 c 0.163,0.839 -0.13,4.874 -0.195,5.736 v 0 c -0.05,0.61 -1.303,3.467 -1.905,5.066 v 0 c -0.255,0.687 -0.734,0.727 -1.071,0.559 v 0 c -1.348,-0.675 -1.41,-3.018 -1.139,-4.109 v 0 c 0.162,-0.632 1.006,-2.35 1.338,-3.799 v 0 c -0.869,-6.775 -2.346,-7.263 -2.346,-7.263 v 0 c 0,0 -0.508,-0.404 -2.259,-0.692 v 0 c -3.075,-0.518 -8.473,-2.026 -9.97,-0.415 v 0 c -0.098,0.11 -0.376,0.267 -0.594,0.093 v 0 c -0.465,-0.367 -4.394,-3.759 -6.765,-5.559 v 0 c -7.565,-5.734 -12.797,-7.299 -18.783,-11.423 v 0 c -6.921,-10.85 -13.409,-14.504 -21.964,-16.848 v 0 c -3.674,-1.008 -7.342,-0.936 -8.006,1.001 v 0 c -1.62,4.659 4.415,7.089 8.685,7.795 v 0 c 0.228,0.032 0.234,0.356 0.01,0.477 v 0 c -2.061,1.119 -4.438,1.635 -7.347,1.635 v 0 c -21.48,0.532 -41.492,-25.084 -39.678,-39.002 v 0 c 0.027,-0.277 0.063,-0.551 0.107,-0.821 v 0 h 22.026 c 3.102,2.874 6.357,6.58 9.663,11.183 v 0 c 0,0 -1.104,-0.229 -2.761,-0.457 v 0 c -2.135,-0.295 -5.188,-0.589 -7.978,-0.393 v 0 c 0.02,0.012 6.616,1.186 16.055,7.701 v 0 c 7.325,-1.935 14.351,1.586 20.153,5.108 v 0 c 6.449,3.916 11.386,7.831 13.541,4.25 v 0 c 0.132,-0.204 0.417,-0.015 0.5,0.045 v 0 c 12.442,8.443 17.328,19.147 26.036,26.598 v 0 c 3.903,3.337 4.673,4.72 11.447,6.522 v 0 c 1.882,0.498 2.092,1.23 2.727,1.965 v 0 c 0.884,1.037 2.153,0.121 3.067,1.725 v 0 c 0.364,0.64 -0.02,1.61 1.819,1.992 v 0 c 1.857,0.397 2.042,2.109 2.922,3.086 v 0 c 2.307,2.552 2.023,2.395 4.007,4.523 v 0 c 0.743,0.864 3.748,4.521 4.036,5.094 v 0 c 0.422,0.842 1.459,3.586 2.777,5.122 v 0 c 1.265,1.48 0.138,1.957 -1.14,1.673 v 0 c -0.897,-0.193 -1.882,-0.904 -2.763,-2.133 v 0 c -0.229,-0.477 -1.253,-2.137 -1.695,-3.223 v 0 c -0.725,-0.597 -1.141,-1.058 -1.678,-1.615 v 0 c -0.665,-0.693 -1.63,-1.855 -1.675,-2.004 v 0 c -0.504,-1.654 -2.049,-4.869 -2.049,-4.869 v 0 c 0.23,1.438 1.58,5.342 1.692,6.051 v 0 c 0.168,1.013 -0.163,2.244 -0.259,3.256 v 0 c -0.065,0.771 -0.13,1.538 -0.141,2.306 v 0 c -0.007,0.345 0.348,2.513 -0.392,2.513 v 0 c -0.009,0 -0.019,0 -0.029,-0.001 m -15.828,-4.696 c -0.045,-2.206 -2.113,-4.121 -2.976,-5.13 v 0 c -2.778,-3.247 -5.397,-4.346 -5.518,-7.64 v 0 c -0.045,-1.163 -0.608,-3.048 -0.909,-3.978 v 0 c -0.11,-0.336 0.195,-0.289 0.407,-0.173 v 0 c 1.722,0.962 4.192,1.202 6.572,2.35 v 0 c 1.638,0.794 2.008,0.86 4.223,2.344 v 0 c 0.146,0.088 0.166,0.302 -0.247,0.353 v 0 c -1.031,0.122 -2.854,0.527 -2.953,1.795 v 0 c -0.195,1.258 0.276,2.822 1.38,4.042 v 0 c 0.773,0.86 2.121,2.143 2.19,3.347 v 0 c 0.127,2.202 -0.93,2.7 -1.918,2.7 v 0 c -0.084,0 -0.168,-0.004 -0.251,-0.01 m -114.39,-12.132 c -0.274,-1.418 -0.043,-3.048 -0.043,-3.048 v 0 c 0,0 4.355,0.956 5.945,-3.492 v 0 c -1.288,1.289 -2.532,1.918 -2.971,1.999 v 0 c -1.718,0.306 -2.764,-0.768 -3.05,-2.237 v 0 c -0.845,-4.369 3.656,-8.088 4.123,-8.521 v 0 c -0.886,-8.769 2.889,-14.336 3.25,-21.313 v 0 c 0.231,-4.521 -3,-6.415 -3.55,-6.965 v 0 c -3.674,-3.679 -4.649,-5.315 -5.786,-8.389 v 0 c 0,2.368 0.819,5.634 2.796,9.172 v 0 c 0.156,0.271 0.147,0.637 -0.382,0.354 v 0 c -1.612,-0.875 -4.134,-2.311 -6.198,-4.05 v 0 c -1.593,-1.34 -2.891,-2.86 -4.136,-4.329 v 0 c -2.123,-0.626 -5.301,-1.974 -9.586,-4.983 v 0 c -3.51,-2.459 -5.688,-7.078 -5.688,-7.078 v 0 c 0,0 -3.624,0.315 -8.91,-0.128 v 0 c -11.384,-0.949 -26.052,-6.182 -26.052,-6.182 v 0 h 58.564 c 1.081,15.221 21.128,34.39 36.695,39.455 v 0 c 0.417,0.165 0.409,0.386 0,0.336 v 0 c -5.47,-0.619 -10.997,-2.486 -16.142,-4.972 v 0 c -0.212,0.359 -0.371,0.642 -0.371,1.602 v 0 c 0,1.58 0.416,3.956 2.039,3.914 v 0 c 3.894,-0.12 6.231,2.275 6.231,2.275 v 0 c 0,0 -6.022,0.775 -5.526,3.328 v 0 c 0.145,0.772 0.612,1.135 1.351,1.004 v 0 c 2.26,-0.4 3.065,1.435 3.065,1.435 v 0 c 0,0 -2.158,0.536 -3.1,1.217 v 0 c -0.193,0.143 -0.452,0.377 -0.145,0.689 v 0 c 0.366,0.378 0.737,0.688 1.397,0.518 v 0 c 1.839,-0.478 2.899,-0.56 3.512,-0.56 v 0 c 0.379,0.007 0.624,0.291 0.317,0.447 v 0 c -0.672,0.332 -1.607,1.341 -2.858,1.891 v 0 c 1.975,1.215 3.177,2.851 3.177,2.851 v 0 c 0,0 -0.542,-0.17 -1.562,0.261 v 0 c -1.239,0.524 -1.202,6.539 -2.008,7.837 v 0 c -0.9,1.48 -2.737,2.894 -3.858,3.383 v 0 c -1.441,0.624 -2.818,0.81 -3.503,1.546 v 0 c -1.164,1.257 0.873,9.02 -7.49,9.02 v 0 c -5.235,0 -8.743,-4.115 -9.547,-8.287 m 17.001,-14.803 c 0.104,0.676 0.092,1.521 -0.39,2.192 v 0 c -0.546,0.763 -1.125,1.431 -2.534,2.176 v 0 c -0.283,0.146 -0.874,0.503 -0.876,1.232 v 0 c -0.019,1.69 1.582,2.903 1.582,2.903 v 0 c 0,0 0.955,-0.801 2.997,-0.786 v 0 c 2.037,0.021 3.023,-0.596 3.491,-1.293 v 0 c -0.119,-3.992 -2.172,-6.889 -3.767,-6.911 v 0 c -0.353,0 -0.546,0.214 -0.503,0.487 m 10.656,7.739 c -0.757,-0.753 -0.047,-2.533 0.12,-2.93 v 0 c 1.892,-0.037 2.838,-0.557 3.242,-0.557 v 0 c 0.248,0.002 0.478,0.094 0.652,0.227 v 0 c 0.64,0.473 1.249,1.127 1.242,1.564 v 0 c -0.009,1.021 -1.264,2.217 -3.652,2.341 v 0 c -0.102,0.005 -0.195,0.008 -0.28,0.008 v 0 c -0.644,0 -0.843,-0.168 -1.324,-0.653" /></clipPath>
        <linearGradient
                id="linearGradient32"
                spreadMethod="pad"
                gradientTransform="matrix(194.18721,98.943329,98.943329,-194.18721,57.708008,124.66406)"
                gradientUnits="userSpaceOnUse"
                y2="0"
                x2="1"
                y1="0"
                x1="0"><stop
         id="stop24"
         offset="0"
         style="stop-opacity:1;stop-color:#005596" />
            <stop
                    id="stop26"
                    offset="0.337079"
                    style="stop-opacity:1;stop-color:#005596"/>
            <stop
                    id="stop28"
                    offset="0.75"
                    style="stop-opacity:1;stop-color:#0093d1"/>
            <stop
                    id="stop30"
                    offset="1"
                    style="stop-opacity:1;stop-color:#0093d1"/></linearGradient>
        <clipPath
                id="clipPath42"
                clipPathUnits="userSpaceOnUse"><path
         id="path40"
         d="M 0,300 H 300 V 0 H 0 Z" /></clipPath></defs>
    <g
            transform="matrix(1.3333333,0,0,-1.3333333,0,400)"
            id="g10"><g
       id="g12"><g
         clip-path="url(#clipPath18)"
         id="g14"><g
           id="g20"><g
             id="g22"><path
               id="path34"
               style="fill:url(#linearGradient32);stroke:none"
               d="m 247.334,212.311 c -0.667,-0.051 -2.103,-0.611 -2.481,-2.58 v 0 c -0.233,-1.173 0.054,-3.252 -0.099,-5.526 v 0 c -0.033,-0.531 -0.482,-1.306 -0.774,-2.722 v 0 c -0.328,-1.625 -0.731,-3.857 -1.345,-5.728 v 0 c 0.082,0.63 0.68,4.333 0.776,5.872 v 0 c 0.097,1.532 -1.251,6.363 -1.347,7.133 v 0 c -0.075,0.62 -0.314,0.797 -0.635,0.827 v 0 c -1.153,0.103 -2.303,-1.631 -1.933,-3.975 v 0 c 0.12,-0.704 1,-2.737 0.919,-3.895 v 0 c -0.079,-1.158 -0.642,-2.342 -0.696,-3 v 0 c -0.13,-1.627 -0.206,-3.831 -0.411,-4.855 v 0 c 0.163,0.839 -0.13,4.874 -0.195,5.736 v 0 c -0.05,0.61 -1.303,3.467 -1.905,5.066 v 0 c -0.255,0.687 -0.734,0.727 -1.071,0.559 v 0 c -1.348,-0.675 -1.41,-3.018 -1.139,-4.109 v 0 c 0.162,-0.632 1.006,-2.35 1.338,-3.799 v 0 c -0.869,-6.775 -2.346,-7.263 -2.346,-7.263 v 0 c 0,0 -0.508,-0.404 -2.259,-0.692 v 0 c -3.075,-0.518 -8.473,-2.026 -9.97,-0.415 v 0 c -0.098,0.11 -0.376,0.267 -0.594,0.093 v 0 c -0.465,-0.367 -4.394,-3.759 -6.765,-5.559 v 0 c -7.565,-5.734 -12.797,-7.299 -18.783,-11.423 v 0 c -6.921,-10.85 -13.409,-14.504 -21.964,-16.848 v 0 c -3.674,-1.008 -7.342,-0.936 -8.006,1.001 v 0 c -1.62,4.659 4.415,7.089 8.685,7.795 v 0 c 0.228,0.032 0.234,0.356 0.01,0.477 v 0 c -2.061,1.119 -4.438,1.635 -7.347,1.635 v 0 c -21.48,0.532 -41.492,-25.084 -39.678,-39.002 v 0 c 0.027,-0.277 0.063,-0.551 0.107,-0.821 v 0 h 22.026 c 3.102,2.874 6.357,6.58 9.663,11.183 v 0 c 0,0 -1.104,-0.229 -2.761,-0.457 v 0 c -2.135,-0.295 -5.188,-0.589 -7.978,-0.393 v 0 c 0.02,0.012 6.616,1.186 16.055,7.701 v 0 c 7.325,-1.935 14.351,1.586 20.153,5.108 v 0 c 6.449,3.916 11.386,7.831 13.541,4.25 v 0 c 0.132,-0.204 0.417,-0.015 0.5,0.045 v 0 c 12.442,8.443 17.328,19.147 26.036,26.598 v 0 c 3.903,3.337 4.673,4.72 11.447,6.522 v 0 c 1.882,0.498 2.092,1.23 2.727,1.965 v 0 c 0.884,1.037 2.153,0.121 3.067,1.725 v 0 c 0.364,0.64 -0.02,1.61 1.819,1.992 v 0 c 1.857,0.397 2.042,2.109 2.922,3.086 v 0 c 2.307,2.552 2.023,2.395 4.007,4.523 v 0 c 0.743,0.864 3.748,4.521 4.036,5.094 v 0 c 0.422,0.842 1.459,3.586 2.777,5.122 v 0 c 1.265,1.48 0.138,1.957 -1.14,1.673 v 0 c -0.897,-0.193 -1.882,-0.904 -2.763,-2.133 v 0 c -0.229,-0.477 -1.253,-2.137 -1.695,-3.223 v 0 c -0.725,-0.597 -1.141,-1.058 -1.678,-1.615 v 0 c -0.665,-0.693 -1.63,-1.855 -1.675,-2.004 v 0 c -0.504,-1.654 -2.049,-4.869 -2.049,-4.869 v 0 c 0.23,1.438 1.58,5.342 1.692,6.051 v 0 c 0.168,1.013 -0.163,2.244 -0.259,3.256 v 0 c -0.065,0.771 -0.13,1.538 -0.141,2.306 v 0 c -0.007,0.345 0.348,2.513 -0.392,2.513 v 0 c -0.009,0 -0.019,0 -0.029,-0.001 m -15.828,-4.696 c -0.045,-2.206 -2.113,-4.121 -2.976,-5.13 v 0 c -2.778,-3.247 -5.397,-4.346 -5.518,-7.64 v 0 c -0.045,-1.163 -0.608,-3.048 -0.909,-3.978 v 0 c -0.11,-0.336 0.195,-0.289 0.407,-0.173 v 0 c 1.722,0.962 4.192,1.202 6.572,2.35 v 0 c 1.638,0.794 2.008,0.86 4.223,2.344 v 0 c 0.146,0.088 0.166,0.302 -0.247,0.353 v 0 c -1.031,0.122 -2.854,0.527 -2.953,1.795 v 0 c -0.195,1.258 0.276,2.822 1.38,4.042 v 0 c 0.773,0.86 2.121,2.143 2.19,3.347 v 0 c 0.127,2.202 -0.93,2.7 -1.918,2.7 v 0 c -0.084,0 -0.168,-0.004 -0.251,-0.01 m -114.39,-12.132 c -0.274,-1.418 -0.043,-3.048 -0.043,-3.048 v 0 c 0,0 4.355,0.956 5.945,-3.492 v 0 c -1.288,1.289 -2.532,1.918 -2.971,1.999 v 0 c -1.718,0.306 -2.764,-0.768 -3.05,-2.237 v 0 c -0.845,-4.369 3.656,-8.088 4.123,-8.521 v 0 c -0.886,-8.769 2.889,-14.336 3.25,-21.313 v 0 c 0.231,-4.521 -3,-6.415 -3.55,-6.965 v 0 c -3.674,-3.679 -4.649,-5.315 -5.786,-8.389 v 0 c 0,2.368 0.819,5.634 2.796,9.172 v 0 c 0.156,0.271 0.147,0.637 -0.382,0.354 v 0 c -1.612,-0.875 -4.134,-2.311 -6.198,-4.05 v 0 c -1.593,-1.34 -2.891,-2.86 -4.136,-4.329 v 0 c -2.123,-0.626 -5.301,-1.974 -9.586,-4.983 v 0 c -3.51,-2.459 -5.688,-7.078 -5.688,-7.078 v 0 c 0,0 -3.624,0.315 -8.91,-0.128 v 0 c -11.384,-0.949 -26.052,-6.182 -26.052,-6.182 v 0 h 58.564 c 1.081,15.221 21.128,34.39 36.695,39.455 v 0 c 0.417,0.165 0.409,0.386 0,0.336 v 0 c -5.47,-0.619 -10.997,-2.486 -16.142,-4.972 v 0 c -0.212,0.359 -0.371,0.642 -0.371,1.602 v 0 c 0,1.58 0.416,3.956 2.039,3.914 v 0 c 3.894,-0.12 6.231,2.275 6.231,2.275 v 0 c 0,0 -6.022,0.775 -5.526,3.328 v 0 c 0.145,0.772 0.612,1.135 1.351,1.004 v 0 c 2.26,-0.4 3.065,1.435 3.065,1.435 v 0 c 0,0 -2.158,0.536 -3.1,1.217 v 0 c -0.193,0.143 -0.452,0.377 -0.145,0.689 v 0 c 0.366,0.378 0.737,0.688 1.397,0.518 v 0 c 1.839,-0.478 2.899,-0.56 3.512,-0.56 v 0 c 0.379,0.007 0.624,0.291 0.317,0.447 v 0 c -0.672,0.332 -1.607,1.341 -2.858,1.891 v 0 c 1.975,1.215 3.177,2.851 3.177,2.851 v 0 c 0,0 -0.542,-0.17 -1.562,0.261 v 0 c -1.239,0.524 -1.202,6.539 -2.008,7.837 v 0 c -0.9,1.48 -2.737,2.894 -3.858,3.383 v 0 c -1.441,0.624 -2.818,0.81 -3.503,1.546 v 0 c -1.164,1.257 0.873,9.02 -7.49,9.02 v 0 c -5.235,0 -8.743,-4.115 -9.547,-8.287 m 17.001,-14.803 c 0.104,0.676 0.092,1.521 -0.39,2.192 v 0 c -0.546,0.763 -1.125,1.431 -2.534,2.176 v 0 c -0.283,0.146 -0.874,0.503 -0.876,1.232 v 0 c -0.019,1.69 1.582,2.903 1.582,2.903 v 0 c 0,0 0.955,-0.801 2.997,-0.786 v 0 c 2.037,0.021 3.023,-0.596 3.491,-1.293 v 0 c -0.119,-3.992 -2.172,-6.889 -3.767,-6.911 v 0 c -0.353,0 -0.546,0.214 -0.503,0.487 m 10.656,7.739 c -0.757,-0.753 -0.047,-2.533 0.12,-2.93 v 0 c 1.892,-0.037 2.838,-0.557 3.242,-0.557 v 0 c 0.248,0.002 0.478,0.094 0.652,0.227 v 0 c 0.64,0.473 1.249,1.127 1.242,1.564 v 0 c -0.009,1.021 -1.264,2.217 -3.652,2.341 v 0 c -0.102,0.005 -0.195,0.008 -0.28,0.008 v 0 c -0.644,0 -0.843,-0.168 -1.324,-0.653" /></g></g></g></g>
        <g
                id="g36"><g
         clip-path="url(#clipPath42)"
         id="g38"><g
           transform="translate(116.2041,88.1182)"
           id="g44"><path
             id="path46"
             style="fill:#002f6d;fill-opacity:1;fill-rule:nonzero;stroke:none"
             d="m 0,0 h 13.754 c 1.213,0 2.023,0.891 2.023,2.172 V 3.27 C 15.115,3.121 14.124,3.055 12.247,3.055 H 7.719 l 7.874,15.156 H 0.117 V 15.209 H 7.043 L 0.445,2.684 C -0.144,1.583 -0.216,0.703 0,0" /></g><g
                transform="translate(102.4932,97.7979)"
                id="g48"><path
             id="path50"
             style="fill:#002f6d;fill-opacity:1;fill-rule:nonzero;stroke:none"
             d="M 0,0 3.564,-6.855 C 4.557,-8.824 4.999,-9.68 7.245,-9.68 h 5.071 c -0.29,0.229 -0.552,0.703 -1.066,1.615 L 6.06,1.477 12.135,8.531 H 6.729 Z" /></g><g
                transform="translate(95.8369,88.1182)"
                id="g52"><path
             id="path54"
             style="fill:#002f6d;fill-opacity:1;fill-rule:nonzero;stroke:none"
             d="m 0,0 h 6.288 v 21.773 c 0,2.26 -1.655,3.723 -3.933,3.723 H 0 Z" /></g><g
                transform="translate(77.3799,96.8096)"
                id="g56"><path
             id="path58"
             style="fill:#002f6d;fill-opacity:1;fill-rule:nonzero;stroke:none"
             d="M 0,0 3.383,9.873 6.531,0 Z M 15.663,-7.039 9.379,11.648 C 8.64,13.879 7.872,14.905 4.784,14.905 H 1.804 L -6.948,-8.691 h 3.972 l 1.999,5.834 h 8.42 L 8.64,-6.631 c 0.445,-1.394 0.995,-2.012 2.502,-2.012 h 5.295 c -0.25,0.256 -0.44,0.688 -0.774,1.604" /></g><g
                transform="translate(142.6807,91.0508)"
                id="g60"><path
             id="path62"
             style="fill:#002f6d;fill-opacity:1;fill-rule:nonzero;stroke:none"
             d="m 0,0 c -2.131,0 -2.901,2.462 -2.901,6.309 0,3.659 0.734,6.153 2.901,6.153 2.136,0 2.827,-2.641 2.827,-6.479 C 2.827,2.345 2.136,0 0,0 m -0.072,-3.362 c 5.224,0 9.67,3.73 9.67,9.92 0,5.285 -4.231,9.197 -9.558,9.197 -5.291,0 -9.713,-3.846 -9.713,-10.039 0,-5.453 4.422,-9.078 9.601,-9.078" /></g><g
                transform="translate(155.104,88.1182)"
                id="g64"><path
             id="path66"
             style="fill:#002f6d;fill-opacity:1;fill-rule:nonzero;stroke:none"
             d="m 0,0 h 3.933 v 15.045 l 9.994,-12 C 15.324,1.355 16.242,0 17.754,0 h 2.861 v 21.615 c 0,1.247 -0.84,2.051 -2.125,2.051 H 16.759 V 9.435 L 7.148,20.889 C 5.714,22.604 4.981,23.666 2.891,23.666 H 0 Z" /></g><g
                transform="translate(188.1138,91.0508)"
                id="g68"><path
             id="path70"
             style="fill:#002f6d;fill-opacity:1;fill-rule:nonzero;stroke:none"
             d="m 0,0 c -2.136,0 -2.906,2.462 -2.906,6.302 0,3.666 0.734,6.16 2.906,6.16 2.129,0 2.832,-2.645 2.832,-6.49 C 2.832,2.345 2.129,0 0,0 m -0.074,-3.362 c 5.221,0 9.673,3.73 9.673,9.92 0,5.273 -4.234,9.197 -9.558,9.197 -5.299,0 -9.709,-3.846 -9.709,-10.039 0,-5.457 4.41,-9.078 9.594,-9.078" /></g><g
                transform="translate(227.2437,99.4033)"
                id="g72"><path
             id="path74"
             style="fill:#002f6d;fill-opacity:1;fill-rule:nonzero;stroke:none"
             d="M 0,0 C 0.206,2.677 1.237,4.361 3.007,4.361 5.433,4.361 5.913,0 5.913,0 Z m 11.608,-2.521 c 0.113,0.726 0.154,1.462 0.154,2.121 0,4.324 -3.203,7.766 -8.679,7.766 -5.441,0 -9.412,-3.809 -9.412,-9.596 0,-5.606 3.49,-9.485 9.19,-9.485 5.698,0 7.752,2.965 7.871,5.824 -1.216,-0.884 -3.092,-1.392 -5.189,-1.392 -3.181,0 -5.242,1.81 -5.536,4.762 z" /></g><g
                transform="translate(207.6372,91.1631)"
                id="g76"><path
             id="path78"
             style="fill:#002f6d;fill-opacity:1;fill-rule:nonzero;stroke:none"
             d="m 0,0 h -0.957 v 11.758 c 0.404,0.039 0.739,0.076 1.363,0.076 2.392,0 4.196,-2.203 4.196,-5.128 C 4.602,2.35 2.942,0 0,0 m 3.827,15.425 c -2.134,0 -3.901,-0.775 -4.784,-1.654 v 4.951 c 0,2.266 -1.614,3.729 -3.895,3.729 h -2.35 V -3.045 H 0.15 c 7.021,0 10.919,3.665 10.919,10.483 0,4.578 -3.121,7.987 -7.242,7.987" /></g><g
                transform="translate(241.6196,88.1182)"
                id="g80"><path
             id="path82"
             style="fill:#002f6d;fill-opacity:1;fill-rule:nonzero;stroke:none"
             d="m 0,0 h 6.254 v 21.767 c 0,2.266 -1.655,3.729 -3.935,3.729 H 0 Z" /></g><path
                id="path84"
                style="fill:#002f6d;fill-opacity:1;fill-rule:nonzero;stroke:none"
                d="M 247.998,125.965 H 41.984 v 0.689 h 206.014 z"/></g></g></g></svg>