<?xml version="1.0" encoding="UTF-8" standalone="no"?>
<!-- Created with Inkscape (http://www.inkscape.org/) -->
<svg
        xmlns="http://www.w3.org/2000/svg"
        version="1.0"
        width="500"
        height="150"
        viewBox="0 -10 500 150"
        id="svg2"
        xml:space="preserve"><defs
     id="defs6"></defs>
    <g
            transform="matrix(1.25,0,0,-1.25,-206.2085,655.63388)"
            id="g12"><path
       d="m 236.34167,474.69786 c 0,-2.49766 -2.05081,-4.54848 -4.54142,-4.54848 l -6.72394,0 c -2.4859,0 -4.53907,2.05082 -4.53907,4.54848 l 0,17.98224 c 0,2.49061 2.05317,4.53437 4.53907,4.53437 l 6.72394,0 c 2.49061,0 4.54142,-2.04376 4.54142,-4.53437 l 0,-17.98224 z m -4.54142,29.24995 -6.72394,0 c -6.22064,0 -11.26771,-5.05412 -11.26771,-11.26771 l 0,-17.98224 c 0,-6.2277 5.04707,-11.27712 11.26771,-11.27712 l 6.72394,0 c 2.87161,0 5.48922,1.0748 7.48123,2.84809 2.32128,2.06257 3.78178,5.07764 3.78178,8.42903 l 0,17.98224 c 0,6.21359 -5.04002,11.26771 -11.26301,11.26771"
       id="path34"
       style="fill:#5a7584;fill-opacity:1;fill-rule:nonzero;stroke:none" />
        <path
                d="m 168.337,523.88256 c -2.40124,0 -3.3702,-0.87489 -3.3702,-2.58468 l 0,-55.27552 c 0,-1.778 0.96896,-2.59174 3.3702,-2.59174 2.38713,0 3.36314,0.88429 3.36314,2.59174 l 0,55.27552 c 0,1.778 -0.97601,2.58468 -3.36314,2.58468"
                id="path38"
                style="fill:#5a7584;fill-opacity:1;fill-rule:nonzero;stroke:none"/>
        <path
                d="m 310.39107,470.16138 -11.25595,-0.0118 c -2.48356,0 -4.53672,2.05081 -4.53672,4.54613 l 0,17.98459 c 0,2.49061 2.05316,4.46616 4.53672,4.46616 l 11.25595,0.0118 0,-26.99688 z m 3.38196,53.72095 -0.007,0 -0.007,0 c -2.38948,0 -3.36785,-0.87489 -3.36785,-2.58233 l 0,-17.34019 c -2.33774,0 -11.25595,-0.0118 -11.25595,-0.0118 -6.21359,0 -11.25831,-5.05412 -11.25831,-11.26771 l 0,-17.98459 c 0,-6.2277 5.04472,-11.26066 11.25831,-11.26066 0,0 14.89426,-0.0188 15.02126,0 2.10961,0.0894 2.97744,0.96896 2.97744,2.58703 l 0,55.27788 c 0,1.77564 -0.97131,2.58233 -3.36079,2.58233"
                id="path42"
                style="fill:#5a7584;fill-opacity:1;fill-rule:nonzero;stroke:none"/>
        <path
                d="m 365.1974,523.88256 c -2.39183,0 -3.3702,-0.87489 -3.3702,-2.58468 l 0,-55.27552 c 0,-1.778 0.97837,-2.59174 3.3702,-2.59174 2.40359,0 3.37255,0.88429 3.37255,2.59174 l 0,55.27552 c 0,1.778 -0.96896,2.58468 -3.37255,2.58468"
                id="path46"
                style="fill:#5a7584;fill-opacity:1;fill-rule:nonzero;stroke:none"/>
        <path
                d="m 561.5919,523.88256 c -2.38713,0 -3.3702,-0.87489 -3.3702,-2.58468 l 0,-55.27552 c 0,-1.778 0.98307,-2.59174 3.3702,-2.59174 2.40594,0 3.3749,0.88429 3.3749,2.59174 l 0,55.27552 c 0,1.778 -0.96896,2.58468 -3.3749,2.58468"
                id="path50"
                style="fill:#5a7584;fill-opacity:1;fill-rule:nonzero;stroke:none"/>
        <path
                d="m 545.20468,523.88256 c -2.38948,0 -3.35609,-0.87489 -3.35609,-2.58468 l 0,-55.27552 c 0,-1.778 0.96661,-2.59174 3.35609,-2.59174 2.40359,0 3.3749,0.88429 3.3749,2.59174 l 0,55.27552 c 0,1.778 -0.97131,2.58468 -3.3749,2.58468"
                id="path54"
                style="fill:#5a7584;fill-opacity:1;fill-rule:nonzero;stroke:none"/>
        <path
                d="m 381.6373,523.88256 c -2.39889,0 -3.37961,-0.87489 -3.37961,-2.58468 l 0,-55.27552 c 0,-1.778 0.98072,-2.59174 3.37961,-2.59174 2.39889,0 3.36314,0.88429 3.36314,2.59174 l 0,55.27552 c 0,1.778 -0.96425,2.58468 -3.36314,2.58468"
                id="path58"
                style="fill:#5a7584;fill-opacity:1;fill-rule:nonzero;stroke:none"/>
        <path
                d="m 417.23889,474.69786 c 0,-2.49766 -2.04846,-4.54848 -4.53672,-4.54848 l -11.26301,0.0118 0,20.25648 0,6.7404 11.26301,-0.0118 c 2.48826,0 4.53672,-1.97555 4.53672,-4.46616 l 0,-17.98224 z m -4.53672,29.24995 c 0,0 -8.92056,0.0118 -11.26301,0.0118 l 0,17.34019 c 0,1.70744 -0.96896,2.58233 -3.36079,2.58233 l -0.0118,0 c -2.38948,0 -3.3702,-0.80668 -3.3702,-2.58233 l 0,-55.27552 c 0,-1.62043 0.87724,-2.48591 2.98215,-2.57528 0.11994,-0.0188 15.02361,-0.0282 15.02361,-0.0282 6.21829,0 11.2536,5.04942 11.2536,11.27712 l 0,17.98224 c 0,6.21359 -5.03531,11.26771 -11.2536,11.26771"
                id="path62"
                style="fill:#5a7584;fill-opacity:1;fill-rule:nonzero;stroke:none"/>
        <path
                d="m 511.6205,494.95081 c 0,1.16887 1.0207,2.19663 2.26013,2.19663 l 11.26301,0 c 1.25353,0 2.27894,-1.02776 2.27894,-2.19663 l 0,-7.90221 -15.80208,0 0,7.90221 z m 19.95544,-24.79085 c -0.2587,0 -17.69531,-0.009 -17.69531,-0.009 -1.23943,0 -2.26013,1.02305 -2.26013,2.27188 l 0,7.89516 19.16052,0 c 1.97555,0 3.3702,1.39465 3.3702,3.37491 l 0,11.2583 c 0,4.90125 -4.02637,8.99818 -9.00758,8.99818 l -11.26301,0 c -4.96476,0 -8.98877,-4.09693 -8.98877,-8.99818 l 0,-22.52837 c 0,-4.97651 4.02401,-9.00053 8.98877,-9.00053 l 17.69531,0 c 1.778,0 2.58704,0.97837 2.58704,3.3702 0,2.40124 -0.87959,3.36785 -2.58704,3.36785"
                id="path66"
                style="fill:#5a7584;fill-opacity:1;fill-rule:nonzero;stroke:none"/>
        <path
                d="m 476.94224,497.21494 17.66709,0 c 1.78976,0 2.58939,0.96896 2.58939,3.3749 0,2.39184 -0.86783,3.3702 -2.58939,3.3702 -0.0329,0 -17.66709,-0.0118 -17.66709,-0.0118 -4.97887,0 -9.00523,-4.02637 -9.00523,-8.99818 l 0,-4.53202 c 0,-4.16982 3.00566,-8.05273 7.16608,-8.7771 l 13.54666,-2.49296 c 1.0207,-0.22342 1.81798,-1.15946 1.81798,-2.18722 l 0,-4.53672 c 0,-1.25118 -1.02071,-2.27424 -2.26483,-2.27424 0,0 -17.43662,0.0118 -17.67886,0.0118 -1.78976,0 -2.58703,-0.96896 -2.58703,-3.35609 0,-2.40594 0.87959,-3.3749 2.58703,-3.3749 0.0447,0 17.67886,-0.009 17.67886,-0.009 4.98121,0 8.99582,4.02637 8.99582,9.00288 l 0,4.53672 c 0,4.16748 -2.99155,8.04098 -7.16844,8.77475 l -13.52548,2.49061 c -1.03011,0.21637 -1.82739,1.16887 -1.82739,2.19192 l 0,4.53202 c 0,1.24178 1.00894,2.26483 2.26483,2.26483"
                id="path70"
                style="fill:#5a7584;fill-opacity:1;fill-rule:nonzero;stroke:none"/>
        <path
                d="m 280.01152,494.95081 c 0,4.96946 -4.02637,8.99818 -8.99347,8.99818 l -11.23244,0 c -4.96945,0 -8.99347,-4.02872 -8.99347,-8.99818 0,0 -0.0118,-28.68551 -0.0118,-28.92775 0,-1.79211 0.97837,-2.60115 3.37255,-2.60115 2.39889,0 3.3655,0.88195 3.3655,2.60115 l 0,28.92775 c 0,1.24178 1.02541,2.26483 2.26718,2.26483 l 11.23244,0 c 1.23707,0 2.26012,-1.02305 2.26012,-2.26483 l 0,-28.92775 c 0,-1.79211 0.97367,-2.60115 3.36315,-2.60115 l 0.007,0 c 2.39888,0 3.37255,0.88195 3.37255,2.60115 l 0,11.43704 -0.009,17.49071 z"
                id="path74"
                style="fill:#5a7584;fill-opacity:1;fill-rule:nonzero;stroke:none"/>
        <path
                d="m 453.40117,470.16138 -13.52314,-0.0118 c -1.24412,0 -2.28129,1.02306 -2.28129,2.27424 l 0,5.63033 c 0,1.24177 1.03717,2.26248 2.28129,2.26248 l 13.52314,0 0,-10.15529 z m -2.26248,33.78667 c 0,0 -16.31243,0.0118 -16.55702,0.0118 -1.778,0 -2.58704,-0.96426 -2.58704,-3.3702 0,-2.39653 0.8796,-3.3749 2.58704,-3.3749 l 16.55702,0 c 1.23707,0 2.26248,-1.02306 2.26248,-2.26484 l 0,-7.90221 -13.52314,0 c -4.98356,0 -9.00523,-4.01226 -9.00523,-8.99347 l 0,-5.63033 c 0,-4.97651 4.02167,-9.00288 9.00523,-9.00288 l 16.89334,0 c 1.82268,0 3.35609,1.54046 3.35609,3.3702 l 0,28.15869 c 0,4.97181 -4.01461,8.99818 -8.98877,8.99818"
                id="path78"
                style="fill:#5a7584;fill-opacity:1;fill-rule:nonzero;stroke:none"/>
        <path
                d="m 331.55631,494.95081 c 0,1.16887 1.02541,2.19663 2.26718,2.19663 l 11.26771,0 c 1.24178,0 2.26719,-1.02776 2.26719,-2.19663 l 0,-7.90221 -15.80208,0 0,7.90221 z m 19.95544,-24.79085 c -0.2587,0 -17.68826,-0.009 -17.68826,-0.009 -1.24177,0 -2.26718,1.02305 -2.26718,2.27188 l 0,7.89516 19.16522,0 c 1.9732,0 3.3655,1.39465 3.3655,3.37491 l 0,11.2583 c 0,4.90125 -4.02402,8.99818 -8.99583,8.99818 l -11.26771,0 c -4.97181,0 -8.99347,-4.09693 -8.99347,-8.99818 l 0,-22.52837 c 0,-4.97651 4.02166,-9.00053 8.99347,-9.00053 l 17.68826,0 c 1.79447,0 2.59174,0.97837 2.59174,3.3702 0,2.40124 -0.88194,3.36785 -2.59174,3.36785"
                id="path82"
                style="fill:#5a7584;fill-opacity:1;fill-rule:nonzero;stroke:none"/>
        <path
                d="m 207.66886,503.61996 c -2.3542,0.54328 -3.7559,-0.65852 -4.22863,-2.02024 l -9.96008,-28.11636 -10.00006,28.16105 c -0.48213,1.36642 -2.12608,2.61996 -4.32505,1.99672 -2.86691,-0.8161 -2.54706,-3.01037 -2.26248,-3.80765 l 13.09274,-36.54774 -1.70038,-4.84481 c -0.005,-0.0212 -0.45156,-1.9003 -2.96098,-1.9003 l -3.86644,0 c -1.2018,0 -2.30482,-0.39981 -2.30482,-3.30199 0,-2.3495 0.88195,-3.30905 3.04565,-3.30905 l 2.89513,0 c 3.54894,0 7.42478,0.71261 9.28745,5.95723 l 15.55043,43.90668 c 0.28457,0.80669 0.45391,3.19852 -2.26248,3.82646"
                id="path86"
                style="fill:#5a7584;fill-opacity:1;fill-rule:nonzero;stroke:none"/>
        <path
                d="m 548.5944,447.26541 c 0,1.78505 -0.96896,2.59644 -3.36314,2.59644 -2.39654,0 -3.37256,-0.88194 -3.37256,-2.59644 l 0,-23.5279 c 0,-1.78976 0.97602,-2.58704 3.37256,-2.58704 2.39418,0 3.36314,0.87489 3.36314,2.58704 l 0,23.5279 z m 16.35241,0 c 0,1.78505 -0.97837,2.59644 -3.36785,2.59644 -2.39888,0 -3.3702,-0.88194 -3.3702,-2.59644 l 0,-23.5279 c 0,-1.78976 0.97132,-2.58704 3.3702,-2.58704 2.38948,0 3.36785,0.87724 3.36785,2.58704 l 0,23.5279 z m -247.81674,0 c 0,1.78505 -0.97367,2.59644 -3.37256,2.59644 -2.39183,0 -3.3702,-0.88194 -3.3702,-2.59644 0,-1.09596 0.005,-23.29272 0.005,-23.5279 0,-1.78976 0.97366,-2.58704 3.36549,-2.58704 2.39889,0 3.37256,0.87489 3.37256,2.58704 l 0,23.5279 z m 84.35614,0 c 0,1.78505 -0.97602,2.59644 -3.37255,2.59644 -2.39654,0 -3.36785,-0.88194 -3.36785,-2.59644 l 0,-23.54672 c 0,-1.79211 0.97131,-2.58703 3.36785,-2.58703 2.39653,0 3.37255,0.87489 3.37255,2.58703 l 0,23.54672 z m -16.50058,0 c 0,1.78505 -0.97131,2.59644 -3.36785,2.59644 -2.39418,0 -3.36549,-0.88194 -3.36549,-2.59644 l 0,-23.5279 c 0,-1.78976 0.97131,-2.58704 3.36549,-2.58704 2.39654,0 3.36785,0.87489 3.36785,2.58704 l 0,23.5279 z m -16.45119,0 c 0,1.78505 -0.97131,2.59644 -3.36785,2.59644 -2.39653,0 -3.36784,-0.88194 -3.36784,-2.59644 l 0,-23.5279 c 0,-1.78976 0.97131,-2.58704 3.36784,-2.58704 2.39654,0 3.36785,0.87489 3.36785,2.58704 l 0,23.5279 z m -196.83099,-23.5279 c 0,-1.71215 -0.97132,-2.58704 -3.3702,-2.58704 -2.38948,0 -3.3655,0.79728 -3.3655,2.58704 l 0,23.5279 c 0,1.7145 0.97602,2.59644 3.3655,2.59644 2.39888,0 3.3702,-0.81139 3.3702,-2.59644 l 0,-23.5279 z"
                id="path90"
                style="fill:#009edb;fill-opacity:1;fill-rule:nonzero;stroke:none"/></g></svg>