<?xml version="1.0" encoding="UTF-8" standalone="no"?>
<svg
   xmlns:dc="http://purl.org/dc/elements/1.1/"
   xmlns:cc="http://creativecommons.org/ns#"
   xmlns:rdf="http://www.w3.org/1999/02/22-rdf-syntax-ns#"
   xmlns:svg="http://www.w3.org/2000/svg"
   xmlns="http://www.w3.org/2000/svg"
   viewBox="0 0 600 310"
   height="400"
   width="600"
   xml:space="preserve"
   id="svg1133"
   version="1.1"><metadata
     id="metadata1139"><rdf:RDF><cc:Work
         rdf:about=""><dc:format>image/svg+xml</dc:format><dc:type
           rdf:resource="http://purl.org/dc/dcmitype/StillImage" /><dc:title></dc:title></cc:Work></rdf:RDF></metadata><defs
     id="defs1137"><clipPath
       id="clipPath1153"
       clipPathUnits="userSpaceOnUse"><path
         id="path1151"
         d="M 0,1000 H 1000 V 0 H 0 Z" /></clipPath></defs><g
     transform="matrix(1.3333333,0,0,-1.3333333,-371.94212,794.15558)"
     id="g1141"><g
       transform="translate(376.2993,208.0176)"
       id="g1143" /><g
       id="g1147"><g
         clip-path="url(#clipPath1153)"
         id="g1149"><g
           transform="translate(395.8184,178.3262)"
           id="g1155" /><g
           transform="translate(463.5947,173.8496)"
           id="g1159" /><g
           transform="translate(514.7422,185.459)"
           id="g1163" /><g
           transform="translate(549.7773,171.6689)"
           id="g1167" /><g
           transform="translate(583.7979,171.6865)"
           id="g1171" /><g
           transform="translate(600.5088,194.5371)"
           id="g1175" /><g
           transform="translate(184.2412,527.0518)"
           id="g1179" /><g
           transform="translate(152.8242,566.0898)"
           id="g1183" /><g
           transform="translate(196.1416,615.0942)"
           id="g1187" /><g
           transform="translate(182.1572,643.9912)"
           id="g1191" /><g
           transform="translate(200.8506,675.5371)"
           id="g1195" /><g
           transform="translate(229.7061,714.3921)"
           id="g1199" /><g
           transform="translate(233.4775,718.6562)"
           id="g1203" /><g
           transform="translate(300.5449,741.2139)"
           id="g1207" /><g
           transform="translate(313.7969,785.3662)"
           id="g1211" /><g
           transform="translate(369.1885,781.4531)"
           id="g1215" /><g
           transform="translate(425.5176,829.5186)"
           id="g1219" /><g
           transform="translate(434.8389,831.2686)"
           id="g1223" /><g
           transform="translate(476.9487,836.4551)"
           id="g1227" /><g
           transform="translate(578.0166,825.1914)"
           id="g1231" /><g
           transform="translate(595.6172,823.9424)"
           id="g1235" /><g
           transform="translate(645.2891,784.2607)"
           id="g1239" /><g
           transform="translate(704.0293,772.8228)"
           id="g1243" /><g
           transform="translate(711.084,767.2378)"
           id="g1247" /><g
           transform="translate(725.5234,756.3428)"
           id="g1251" /><g
           transform="translate(754.4727,729.5205)"
           id="g1255" /><g
           transform="translate(783.3789,691.333)"
           id="g1259" /><g
           transform="translate(785.6855,647.9043)"
           id="g1263" /><g
           transform="translate(830.4824,614.4033)"
           id="g1267" /><g
           transform="translate(833.4561,605.7881)"
           id="g1271" /><g
           transform="translate(815.4805,551.3511)"
           id="g1275" /><g
           transform="translate(851.6406,539.9131)"
           id="g1279" /><g
           transform="translate(436.0488,362.5)"
           id="g1283"><path
             id="path1285"
             style="fill:#231f20;fill-opacity:1;fill-rule:nonzero;stroke:none"
             d="m 0,0 h -14.444 l -37.224,41.654 -0.024,-41.675 h -14.397 v 61.905 l 14.397,-0.039 37.233,-41.371 0.015,41.383 L 0,61.884 Z" /></g><g
           transform="translate(530.5547,424.4053)"
           id="g1287"><path
             id="path1289"
             style="fill:#231f20;fill-opacity:1;fill-rule:nonzero;stroke:none"
             d="m 0,0 -31.525,-61.866 -12.297,-0.039 -31.675,61.884 16.147,0.039 21.834,-42.405 21.385,42.405 z" /></g><g
           transform="translate(550.8203,386.1387)"
           id="g1291"><path
             id="path1293"
             style="fill:#231f20;fill-opacity:1;fill-rule:nonzero;stroke:none"
             d="M 0,0 H -15.525 L -15.479,14.566 0,14.605 Z" /></g><g
           transform="translate(639.9355,362.6045)"
           id="g1295"><path
             id="path1297"
             style="fill:#231f20;fill-opacity:1;fill-rule:nonzero;stroke:none"
             d="m 0,0 -47.915,-0.026 c -5.615,0 -10.425,1.839 -14.379,5.576 -3.85,3.706 -5.82,8.392 -5.808,13.982 v 22.767 c -0.06,5.585 1.919,10.22 5.826,13.982 3.936,3.667 8.746,5.585 14.361,5.559 l 47.901,0.026 V 47.422 l -47.901,-0.039 c -3.894,0 -5.803,-1.714 -5.829,-5.162 l 0.026,-22.702 c 0.039,-3.396 1.931,-5.123 5.803,-5.123 L -14.41,14.379 -14.457,23.7 -34.099,23.679 V 38.162 L -0.014,38.14 Z" /></g><g
           transform="translate(723.6924,362.666)"
           id="g1299"><path
             id="path1301"
             style="fill:#231f20;fill-opacity:1;fill-rule:nonzero;stroke:none"
             d="M 0,0 -62.023,-0.062 -62.05,61.844 -47.566,61.817 -47.549,14.383 0,14.4 Z" /></g><g
           transform="translate(332.6074,382.0186)"
           id="g1303"><path
             id="path1305"
             style="fill:#231f20;fill-opacity:1;fill-rule:nonzero;stroke:none"
             d="m 0,0 c 0,-3.413 -1.838,-5.122 -5.511,-5.122 l -33.44,-0.04 -0.048,14.357 0.128,0.027 0.049,18.616 33.287,0.044 C -1.854,27.864 -0.04,26.155 0,22.724 Z m 8.567,36.763 c -3.865,3.666 -8.63,5.576 -14.222,5.563 l -47.756,-0.04 -0.024,-8.785 0.024,-5.637 -0.047,-8.471 0.023,-10.171 0.039,-28.828 47.774,0.048 c 5.582,0.018 10.324,1.831 14.252,5.616 3.937,3.706 5.855,8.383 5.855,13.982 L 14.461,22.78 C 14.42,28.379 12.528,33 8.567,36.763" /></g><g
           transform="translate(351.0059,173.9756)"
           id="g1307" /><g
           transform="translate(645.3457,171.1465)"
           id="g1311" /><g
           transform="translate(350.814,202.8555)"
           id="g1315" /><g
           transform="translate(642.7031,198.3867)"
           id="g1319" /><g
           transform="translate(278.981,459.1318)"
           id="g1323"><path
             id="path1325"
             style="fill:#294c9e;fill-opacity:1;fill-rule:nonzero;stroke:none"
             d="M 0,0 436.868,0.191 436.855,23.434 0.024,23.229 Z" /></g><g
           transform="translate(715.8096,595.6167)"
           id="g1327"><path
             id="path1329"
             style="fill:#a3d3ea;fill-opacity:1;fill-rule:nonzero;stroke:none"
             d="m 0,0 -436.853,-0.168 0.024,-68.151 436.868,0.192 z" /></g><g
           transform="translate(279.0049,504.8291)"
           id="g1331"><path
             id="path1333"
             style="fill:#68ac44;fill-opacity:1;fill-rule:nonzero;stroke:none"
             d="m 0,0 0.018,-11.237 436.843,0.166 V 0.207 Z" /></g></g></g></g></svg>
